<?xml version="1.0" encoding="utf-8"?>
<!-- Generator: Adobe Illustrator 23.0.3, SVG Export Plug-In . SVG Version: 6.00 Build 0)  -->
<svg version="1.1" id="Layer_1" xmlns="http://www.w3.org/2000/svg" xmlns:xlink="http://www.w3.org/1999/xlink" x="0px" y="0px"
	 viewBox="0 0 545.3 280.25" style="enable-background:new 0 0 545.3 280.25;" xml:space="preserve">
<style type="text/css">
	.st0{fill:#929293;}
	.st1{fill:#ED1C24;}
	.st2{fill:#FFFFFF;stroke:#000000;stroke-miterlimit:10;}
</style>
<g>
	<path class="st0" d="M402.17,69.31c-21.66,0-42.91,11.85-57.77,30.79l-7.43-3.49c16.62-22.22,41.25-36.55,65.99-36.55
		c6.9,0,14.31,0.99,21.1,3.08l14.82-25.88c-43.69-12.53-92.06,10.39-119.49,53.09c-0.07,0.12-0.15,0.23-0.22,0.35
		c0,0-8.81-2.22-12.97-3.5l37.49,23.67c15.96-24.85,43.82-38.69,70.37-30.26l5.01-8.74C413.6,70.17,407.94,69.31,402.17,69.31z"/>
	<path class="st1" d="M335.27,127.99c0.37-1.05,0.77-2.08,1.18-3.1l-4.84-3.01c-0.7,1.66-1.37,3.33-1.98,5.04
		c-9.62,26.99-9.03,57.64,5.85,79.7l-4.56,9.55c-5.11-7.14-9.08-15.31-11.79-24.31c-6.21-20.66-5.09-44.79,3.16-67.94
		c0.76-2.13,1.6-4.22,2.5-6.29l-15.09-9.39c-1.53,3.4-2.95,6.9-4.22,10.47c-16.4,46.03-11.78,94.76,13.87,126.63
		c0.09,0.11,0.18,0.22,0.26,0.33c0,0-5.38,14.43-12.9,34.56l39.18-73.6C327.88,187.27,325.08,156.58,335.27,127.99z"/>
	<path class="st0" d="M438.93,193.71c-17.91,24.47-48.24,37.37-73.24,26.71c-2.29-0.97-4.45-2.06-6.51-3.25l-4.44,7.86
		c2.83,1.74,5.86,3.32,9.1,4.7c6.24,2.66,12.96,4.01,19.99,4.01c17.89,0,36.33-8.18,50.89-21.82l11.33,6.41
		c-17.53,19.29-39.66,26.64-62.23,26.64c-8.03,0-15.74-1.55-22.9-4.61c-4.04-1.73-7.83-3.79-11.38-6.15l-14.8,26.21
		c5.97,4.59,12.61,8.54,19.96,11.68c38.38,16.42,89.69,4.25,123.22-38.78c0.13-0.17,0.26-0.33,0.39-0.5c0,0,51.42,23.66,66.99,32.19
		L438.93,193.71z"/>
	<path class="st1" d="M475.76,0l-47.81,87.22c25.68,16.9,33.77,52.63,21.87,86.02c-0.37,1.05-0.77,2.08-1.19,3.11l7.55,4.78
		c0.6-1.43,1.16-2.87,1.68-4.34c12.44-34.91,5.95-70.04-14.61-90.36l3.23-10.83c26.43,22.26,36.53,64.34,21.94,104.2
		c-0.92,2.51-1.9,4.91-2.89,7.26l29.29,18.55c2.37-5.05,4.56-10.34,6.5-15.92c19.73-56.72,2.92-117.78-42.09-143.72
		c-0.14-0.08-0.49-0.08-0.43-0.25C461.04,39.67,473.19,6.2,475.76,0z"/>
</g>
<g>
	<path class="st2" d="M0.5,157h46.24v1.69c0,7.19,1.15,12.49,3.46,15.92c2.3,3.43,5.87,5.15,10.7,5.15c5.52,0,9.36-1.63,11.5-4.91
		c2.14-3.27,3.22-9.92,3.22-19.95V88.96h46.08v61.28c0,13.89-0.62,23.64-1.85,29.27c-1.23,5.63-3.35,10.43-6.35,14.4
		c-4.34,5.74-10.71,10.05-19.1,12.95c-8.39,2.9-18.67,4.34-30.84,4.34c-22.52,0-38.66-3.79-48.42-11.38
		C5.38,192.24,0.5,179.79,0.5,162.47V157z"/>
	<path class="st2" d="M144.3,207.91V88.96h126.03v29.19h-79.94v14.15h64.74v29.35h-64.74v15.6h83.88v30.64H144.3z"/>
	<path class="st2" d="M388.23,138.91c-0.75-7.35-3.35-12.95-7.8-16.81c-4.45-3.86-10.54-5.79-18.26-5.79
		c-9.87,0-17.41,2.76-22.64,8.28c-5.23,5.52-7.84,13.48-7.84,23.89c0,10.35,2.61,18.26,7.84,23.72c5.23,5.47,12.77,8.2,22.64,8.2
		c7.13,0,12.88-1.62,17.25-4.87c4.37-3.24,7.25-8.05,8.65-14.44h53.16c-2.41,16.46-10.31,28.9-23.69,37.32
		c-13.38,8.42-31.83,12.63-55.37,12.63c-26.43,0-46.38-5.27-59.84-15.8c-13.46-10.54-20.19-26.12-20.19-46.77
		c0-20.7,6.73-36.31,20.19-46.85c13.46-10.54,33.4-15.8,59.84-15.8c24.66,0,43.75,4.57,57.26,13.71
		c13.51,9.14,20.67,22.26,21.47,39.37H388.23z"/>
</g>
<g>
	<g>
		<path class="st2" d="M22.55,218.39h1.35h1.35v10.23c0,1.48-0.35,2.63-1.05,3.44c-0.7,0.81-1.69,1.21-2.97,1.21
			c-1.08,0-1.98-0.34-2.71-1.01c-0.73-0.67-1.16-1.58-1.3-2.71h2.73c0.04,0.37,0.18,0.66,0.41,0.88c0.24,0.22,0.54,0.33,0.9,0.33
			c0.46,0,0.79-0.17,0.99-0.5c0.2-0.33,0.3-0.88,0.3-1.64V218.39z"/>
		<path class="st2" d="M32.6,233.34c-1.5,0-2.78-0.57-3.84-1.7c-1.06-1.13-1.59-2.51-1.59-4.13c0-1.62,0.53-3,1.59-4.14
			c1.06-1.14,2.34-1.71,3.85-1.71c1.46,0,2.69,0.52,3.71,1.57v-1.2h2.42v10.94h-1.2h-1.21v-1.19
			C35.29,232.81,34.05,233.33,32.6,233.34z M33.04,224.05c-0.92,0-1.69,0.33-2.3,1c-0.62,0.67-0.92,1.49-0.92,2.47
			c0,0.98,0.31,1.79,0.92,2.46c0.62,0.66,1.38,0.99,2.29,0.99c0.92,0,1.69-0.33,2.31-0.99c0.62-0.66,0.93-1.48,0.93-2.46
			c0-0.98-0.31-1.8-0.92-2.47C34.72,224.38,33.96,224.05,33.04,224.05z"/>
		<path class="st2" d="M40.73,222.04h1.22h1.22v0.9c0.8-0.85,1.75-1.28,2.85-1.27c1.21,0,2.22,0.46,3.03,1.39l0.19,0.23l0.21-0.23
			c0.85-0.92,1.96-1.39,3.32-1.39c1.34,0,2.41,0.42,3.2,1.26c0.79,0.84,1.18,1.98,1.18,3.42v6.63h-1.31h-1.32v-6.19
			c0-0.89-0.18-1.57-0.54-2.03c-0.36-0.46-0.88-0.69-1.56-0.69c-0.73,0-1.27,0.26-1.63,0.79c-0.36,0.53-0.54,1.32-0.54,2.37v5.76
			h-1.31h-1.32v-5.89c0-0.99-0.18-1.74-0.55-2.25c-0.37-0.51-0.9-0.77-1.6-0.77c-0.7,0-1.23,0.26-1.59,0.79
			c-0.35,0.53-0.53,1.32-0.53,2.37v5.76h-1.31h-1.32V222.04z"/>
		<path class="st2" d="M64.52,233.34c-1.58,0-2.93-0.57-4.04-1.7c-1.11-1.13-1.67-2.51-1.67-4.13c0-1.62,0.56-3,1.67-4.14
			c1.11-1.14,2.46-1.71,4.04-1.71c1.59,0,2.94,0.57,4.05,1.71c1.11,1.14,1.67,2.52,1.67,4.14c0,0.39-0.03,0.78-0.1,1.16h-8.53
			c0.15,0.48,0.39,0.91,0.74,1.29c0.6,0.66,1.34,0.98,2.23,0.98c0.55,0,1.06-0.13,1.52-0.38c0.46-0.26,0.8-0.6,1.02-1.03h2.77
			c-0.35,1.16-1.02,2.09-1.99,2.78C66.92,233,65.8,233.34,64.52,233.34z M67.49,226.57c-0.13-0.58-0.39-1.08-0.78-1.51
			c-0.59-0.66-1.32-0.99-2.2-0.99c-0.87,0-1.6,0.33-2.2,0.99c-0.38,0.44-0.64,0.94-0.79,1.51H67.49z"/>
		<path class="st2" d="M76.29,224.99c-0.06-0.31-0.19-0.54-0.37-0.69c-0.18-0.15-0.41-0.23-0.69-0.23c-0.3,0-0.55,0.09-0.74,0.26
			c-0.19,0.17-0.28,0.4-0.28,0.67c0,0.26,0.12,0.47,0.36,0.64c0.24,0.16,0.69,0.34,1.37,0.55c1.15,0.35,1.97,0.79,2.47,1.32
			c0.49,0.53,0.73,1.23,0.73,2.1c0,1.1-0.36,2-1.09,2.69c-0.73,0.7-1.66,1.04-2.79,1.04c-1.15,0-2.1-0.35-2.85-1.05
			c-0.75-0.7-1.15-1.62-1.2-2.76h2.7c0.08,0.46,0.23,0.81,0.47,1.05c0.24,0.24,0.55,0.36,0.92,0.36c0.36,0,0.66-0.1,0.89-0.3
			c0.23-0.2,0.35-0.46,0.35-0.77c0-0.34-0.1-0.6-0.31-0.79c-0.21-0.19-0.62-0.37-1.22-0.56c-1.21-0.37-2.08-0.82-2.61-1.35
			c-0.52-0.52-0.78-1.21-0.78-2.06c0-1.01,0.35-1.84,1.04-2.48c0.69-0.64,1.58-0.96,2.67-0.96c0.95,0,1.77,0.32,2.45,0.95
			c0.68,0.64,1.05,1.43,1.11,2.37H76.29z"/>
		<path class="st2" d="M86.22,232.98v-14.59h7.85v1.25v1.26h-5.15v3.59h4.91v1.25V227h-4.91v3.46h5.15v1.25v1.26H86.22z"/>
		<path class="st2" d="M101.36,233.34c-1.5,0-2.77-0.57-3.83-1.7c-1.06-1.13-1.58-2.51-1.58-4.13c0-1.62,0.55-3,1.65-4.14
			c1.1-1.14,2.43-1.71,3.99-1.71c1.25,0.01,2.34,0.43,3.26,1.24v-4.53h1.31h1.32v14.59h-1.2h-1.21v-1.18
			C104.03,232.82,102.8,233.34,101.36,233.34z M101.79,224.05c-0.91,0-1.66,0.33-2.28,1c-0.61,0.67-0.92,1.49-0.92,2.47
			c0,0.98,0.3,1.79,0.91,2.46c0.61,0.66,1.37,0.99,2.27,0.99c0.91,0,1.68-0.33,2.29-0.99c0.62-0.66,0.92-1.48,0.92-2.46
			c0-0.98-0.31-1.8-0.92-2.47C103.46,224.38,102.7,224.05,101.79,224.05z"/>
		<path class="st2" d="M112.44,232.98l-3.92-10.94h1.37h1.37l2.14,6.88h0.01l1.75-6.88h1.04h1.04l1.75,6.88h0.01l2.14-6.88h1.37
			h1.37l-3.92,10.94h-0.83h-0.83l-2.09-7.11h0l-2.09,7.11h-0.83H112.44z"/>
		<path class="st2" d="M130.03,233.34c-1.5,0-2.78-0.57-3.84-1.7c-1.06-1.13-1.59-2.51-1.59-4.13c0-1.62,0.53-3,1.59-4.14
			c1.06-1.14,2.34-1.71,3.85-1.71c1.46,0,2.69,0.52,3.71,1.57v-1.2h2.42v10.94h-1.2h-1.21v-1.19
			C132.72,232.81,131.48,233.33,130.03,233.34z M130.47,224.05c-0.92,0-1.69,0.33-2.3,1c-0.62,0.67-0.92,1.49-0.92,2.47
			c0,0.98,0.31,1.79,0.92,2.46c0.62,0.66,1.38,0.99,2.29,0.99c0.92,0,1.69-0.33,2.31-0.99c0.62-0.66,0.93-1.48,0.93-2.46
			c0-0.98-0.31-1.8-0.92-2.47C132.15,224.38,131.38,224.05,130.47,224.05z"/>
		<path class="st2" d="M138.33,222.04h1.22h1.22v0.83l0.13-0.17c0.49-0.68,1.24-1.02,2.26-1.02h0.17v2.5
			c-0.74,0.05-1.3,0.24-1.69,0.58c-0.46,0.4-0.68,1.03-0.68,1.89v6.34h-1.31h-1.32V222.04z"/>
		<path class="st2" d="M149.49,233.34c-1.5,0-2.77-0.57-3.83-1.7c-1.06-1.13-1.58-2.51-1.58-4.13c0-1.62,0.55-3,1.65-4.14
			c1.1-1.14,2.43-1.71,3.99-1.71c1.25,0.01,2.34,0.43,3.26,1.24v-4.53h1.31h1.32v14.59h-1.2h-1.21v-1.18
			C152.15,232.82,150.92,233.34,149.49,233.34z M149.91,224.05c-0.91,0-1.66,0.33-2.28,1c-0.61,0.67-0.92,1.49-0.92,2.47
			c0,0.98,0.3,1.79,0.91,2.46c0.61,0.66,1.37,0.99,2.27,0.99c0.91,0,1.68-0.33,2.29-0.99s0.92-1.48,0.92-2.46
			c0-0.98-0.31-1.8-0.92-2.47C151.58,224.38,150.82,224.05,149.91,224.05z"/>
		<path class="st2" d="M164.1,221.8c0-1.03,0.36-1.9,1.09-2.62c0.73-0.72,1.61-1.08,2.65-1.08c1.04,0,1.92,0.35,2.65,1.05
			c0.73,0.7,1.09,1.55,1.09,2.56c0,0.97-0.29,1.79-0.87,2.46c-0.36,0.41-0.83,0.78-1.42,1.1l0.14,0.17l1.24,1.37l0.81-1.44
			c0.43-0.76,0.65-1.09,0.65-1.01H175c0-0.04-0.3,0.49-0.91,1.59c-0.46,0.82-0.97,1.78-1.55,2.88l2.52,2.75l-1.9,1.67l-1.94-2.14
			c-0.39,0.49-0.83,0.92-1.31,1.28c-0.8,0.57-1.62,0.86-2.48,0.86c-1.34,0-2.47-0.45-3.41-1.35c-0.94-0.9-1.41-1.99-1.41-3.27
			c0-1.07,0.36-2.01,1.07-2.82c0.46-0.51,1.02-0.93,1.69-1.26l-0.58-0.8C164.34,223.05,164.1,222.4,164.1,221.8z M167.26,230.73
			c0.44,0,0.88-0.21,1.34-0.63c0.27-0.26,0.54-0.58,0.81-0.96l-1.85-2.04l-0.5-0.56c-0.32,0.15-0.62,0.35-0.89,0.58
			c-0.61,0.51-0.91,1.06-0.91,1.66c0,0.55,0.2,1.01,0.59,1.39C166.22,230.54,166.7,230.73,167.26,230.73z M166.59,221.79
			c0,0.25,0.13,0.54,0.38,0.86l0.71,0.83c0.27-0.12,0.51-0.26,0.71-0.41c0.49-0.35,0.73-0.77,0.73-1.25c0-0.38-0.12-0.68-0.35-0.91
			c-0.23-0.23-0.54-0.35-0.91-0.35c-0.35,0-0.65,0.12-0.9,0.36C166.71,221.16,166.59,221.45,166.59,221.79z"/>
		<path class="st2" d="M195.9,228.89c-0.55,1.33-1.45,2.39-2.69,3.18c-1.24,0.79-2.62,1.19-4.14,1.19c-2.09,0-3.86-0.74-5.33-2.21
			c-1.47-1.48-2.2-3.26-2.2-5.36c0-2.11,0.73-3.9,2.2-5.37c1.47-1.48,3.24-2.21,5.33-2.21c1.53,0,2.93,0.4,4.17,1.21
			c1.25,0.81,2.16,1.89,2.72,3.24h-3.07c-0.46-0.59-1.04-1.06-1.75-1.41c-0.71-0.35-1.43-0.52-2.17-0.52
			c-1.28,0-2.39,0.49-3.33,1.47c-0.93,0.98-1.4,2.15-1.4,3.5c0,1.45,0.48,2.67,1.43,3.67c0.95,1,2.12,1.5,3.49,1.5
			c0.68,0,1.35-0.17,2.01-0.51c0.66-0.34,1.21-0.79,1.65-1.35H195.9z"/>
		<path class="st2" d="M198.44,231.64c-1.13-1.13-1.7-2.51-1.7-4.13c0-1.62,0.57-3,1.7-4.14c1.13-1.14,2.51-1.71,4.12-1.71
			c1.62,0,2.99,0.57,4.13,1.71c1.13,1.14,1.7,2.52,1.7,4.14c0,1.62-0.57,2.99-1.7,4.13c-1.13,1.13-2.51,1.7-4.13,1.7
			C200.95,233.34,199.57,232.77,198.44,231.64z M204.83,229.96c0.61-0.65,0.91-1.47,0.91-2.45c0-0.98-0.31-1.79-0.91-2.46
			c-0.61-0.66-1.37-0.99-2.27-0.99c-0.9,0-1.65,0.33-2.26,0.99c-0.61,0.66-0.91,1.48-0.91,2.46c0,0.98,0.3,1.79,0.91,2.45
			c0.61,0.66,1.36,0.98,2.26,0.98C203.46,230.94,204.22,230.62,204.83,229.96z"/>
		<path class="st2" d="M209.94,222.04h1.22h1.22v0.9c0.8-0.85,1.75-1.28,2.85-1.27c1.21,0,2.22,0.46,3.03,1.39l0.19,0.23l0.21-0.23
			c0.85-0.92,1.96-1.39,3.32-1.39c1.34,0,2.41,0.42,3.2,1.26c0.79,0.84,1.18,1.98,1.18,3.42v6.63h-1.31h-1.32v-6.19
			c0-0.89-0.18-1.57-0.54-2.03c-0.36-0.46-0.88-0.69-1.56-0.69c-0.73,0-1.27,0.26-1.63,0.79c-0.36,0.53-0.54,1.32-0.54,2.37v5.76
			h-1.31h-1.32v-5.89c0-0.99-0.18-1.74-0.55-2.25c-0.37-0.51-0.9-0.77-1.6-0.77c-0.7,0-1.23,0.26-1.59,0.79
			c-0.35,0.53-0.53,1.32-0.53,2.37v5.76h-1.31h-1.32V222.04z"/>
		<path class="st2" d="M228.34,222.04h1.2h1.21v1.16c1.03-1.02,2.25-1.53,3.66-1.52c1.5,0,2.78,0.57,3.83,1.71
			c1.05,1.14,1.58,2.52,1.58,4.14c0,1.62-0.53,2.99-1.58,4.13c-1.05,1.13-2.33,1.7-3.84,1.7c-1.3-0.01-2.45-0.44-3.44-1.3v4.58
			h-1.31h-1.32V222.04z M233.99,230.96c0.91,0,1.66-0.33,2.28-0.99c0.61-0.66,0.92-1.48,0.92-2.46c0-0.98-0.31-1.81-0.92-2.47
			c-0.61-0.66-1.37-1-2.27-1c-0.91,0-1.66,0.33-2.27,0.99c-0.61,0.66-0.92,1.48-0.92,2.47c0,0.98,0.3,1.8,0.92,2.46
			C232.34,230.63,233.09,230.96,233.99,230.96z"/>
		<path class="st2" d="M246.39,233.34c-1.5,0-2.78-0.57-3.84-1.7c-1.06-1.13-1.59-2.51-1.59-4.13c0-1.62,0.53-3,1.59-4.14
			c1.06-1.14,2.34-1.71,3.85-1.71c1.46,0,2.69,0.52,3.71,1.57v-1.2h2.42v10.94h-1.2h-1.21v-1.19
			C249.08,232.81,247.85,233.33,246.39,233.34z M246.83,224.05c-0.92,0-1.69,0.33-2.3,1c-0.62,0.67-0.92,1.49-0.92,2.47
			c0,0.98,0.31,1.79,0.92,2.46c0.62,0.66,1.38,0.99,2.29,0.99c0.92,0,1.69-0.33,2.31-0.99c0.62-0.66,0.93-1.48,0.93-2.46
			c0-0.98-0.31-1.8-0.92-2.47C248.51,224.38,247.75,224.05,246.83,224.05z"/>
		<path class="st2" d="M254.52,222.04h1.22h1.22v0.94c0.85-0.87,1.86-1.31,3.04-1.31c1.3,0,2.33,0.44,3.09,1.31
			c0.76,0.88,1.14,2.06,1.14,3.55v6.44h-1.31h-1.32v-5.86c0-1-0.19-1.76-0.56-2.28c-0.37-0.52-0.91-0.78-1.63-0.78
			c-0.76,0-1.33,0.26-1.7,0.79c-0.38,0.53-0.57,1.32-0.57,2.37v5.76h-1.31h-1.32V222.04z"/>
		<path class="st2" d="M266.34,218.39h2.63v2.41h-2.63V218.39z M266.34,222.04h1.31h1.32v10.94h-1.31h-1.32V222.04z"/>
		<path class="st2" d="M276.35,233.34c-1.58,0-2.93-0.57-4.04-1.7c-1.11-1.13-1.67-2.51-1.67-4.13c0-1.62,0.56-3,1.67-4.14
			c1.11-1.14,2.46-1.71,4.04-1.71c1.58,0,2.94,0.57,4.05,1.71c1.11,1.14,1.67,2.52,1.67,4.14c0,0.39-0.03,0.78-0.1,1.16h-8.53
			c0.15,0.48,0.4,0.91,0.74,1.29c0.6,0.66,1.34,0.98,2.23,0.98c0.55,0,1.06-0.13,1.52-0.38c0.46-0.26,0.8-0.6,1.02-1.03h2.77
			c-0.35,1.16-1.02,2.09-1.99,2.78C278.75,233,277.62,233.34,276.35,233.34z M279.32,226.57c-0.13-0.58-0.39-1.08-0.78-1.51
			c-0.59-0.66-1.32-0.99-2.2-0.99c-0.87,0-1.61,0.33-2.2,0.99c-0.38,0.44-0.64,0.94-0.79,1.51H279.32z"/>
		<path class="st2" d="M288.12,224.99c-0.06-0.31-0.19-0.54-0.37-0.69c-0.18-0.15-0.41-0.23-0.69-0.23c-0.3,0-0.55,0.09-0.74,0.26
			c-0.19,0.17-0.28,0.4-0.28,0.67c0,0.26,0.12,0.47,0.36,0.64c0.24,0.16,0.69,0.34,1.37,0.55c1.15,0.35,1.97,0.79,2.47,1.32
			c0.49,0.53,0.73,1.23,0.73,2.1c0,1.1-0.36,2-1.09,2.69c-0.73,0.7-1.66,1.04-2.79,1.04c-1.15,0-2.1-0.35-2.85-1.05
			c-0.75-0.7-1.15-1.62-1.2-2.76h2.7c0.08,0.46,0.23,0.81,0.47,1.05c0.24,0.24,0.55,0.36,0.92,0.36c0.36,0,0.66-0.1,0.89-0.3
			c0.23-0.2,0.35-0.46,0.35-0.77c0-0.34-0.11-0.6-0.31-0.79c-0.21-0.19-0.62-0.37-1.22-0.56c-1.21-0.37-2.08-0.82-2.61-1.35
			c-0.52-0.52-0.78-1.21-0.78-2.06c0-1.01,0.35-1.84,1.04-2.48c0.69-0.64,1.58-0.96,2.67-0.96c0.95,0,1.77,0.32,2.45,0.95
			c0.68,0.64,1.05,1.43,1.11,2.37H288.12z"/>
	</g>
</g>
</svg>
